<?xml version="1.0" encoding="utf-8"?>
<!-- Generator: Adobe Illustrator 27.6.1, SVG Export Plug-In . SVG Version: 6.00 Build 0)  -->
<svg version="1.1" id="Layer_1" xmlns="http://www.w3.org/2000/svg" xmlns:xlink="http://www.w3.org/1999/xlink" x="0px" y="0px"
	 viewBox="0 0 77 77.2" style="enable-background:new 0 0 77 77.2;" xml:space="preserve">
<style type="text/css">
	.st0{fill:#595959;}
</style>
<path class="st0" d="M47.7,1.1c-15.3,0-27.8,12.5-27.8,27.8c0,6.4,2.2,12.2,5.8,16.9l-25,24.3l5.6,5.7l25.2-24.5
	c4.6,3.3,10.2,5.3,16.3,5.3c15.3,0,27.8-12.5,27.8-27.8C75.5,13.6,63,1.1,47.7,1.1z M47.7,48.7c-10.9,0-19.8-8.9-19.8-19.8
	S36.8,9.1,47.7,9.1c10.9,0,19.8,8.9,19.8,19.8S58.6,48.7,47.7,48.7z"/>
</svg>
